Coordinates
version=1
nRows=21
nColumns=12
inDegrees=yes

Units are S.I. units (second, meters, Newtons, ...)
Angles are in degrees

endheader
time	SC_y	SC_z	SC_x	AC_y	AC_z	AC_x	GH_y	GH_z	GH_yy	EL_x	PS_y
       0.0              -34.75         -1.915          37.05          65.57         -14.42         -2.476         -111.2          38.78          34.62          27.63          86.87
   0.02175              -34.75         -1.913          37.05          65.57         -14.42         -2.478         -111.2          38.78          34.64          27.64          86.86
   0.04351              -34.75         -1.911          37.05          65.57         -14.42          -2.48         -111.2          38.78          34.66          27.66          86.85
   0.06526              -34.75         -1.908          37.04          65.57         -14.42         -2.481         -111.1          38.78          34.68          27.67          86.84
   0.08702              -34.75         -1.906          37.04          65.57         -14.41         -2.483         -111.1          38.78           34.7          27.69          86.83
    0.1088              -34.75         -1.903          37.04          65.56         -14.41         -2.485         -111.1          38.78          34.73          27.71          86.82
    0.1305              -34.75           -1.9          37.03          65.56         -14.41         -2.488         -111.1          38.78          34.75          27.73          86.81
    0.1523              -34.75         -1.897          37.03          65.56         -14.41          -2.49         -111.1          38.78          34.78          27.75           86.8
     0.174              -34.75         -1.894          37.02          65.56          -14.4         -2.492         -111.1          38.78          34.81          27.77          86.78
    0.1958              -34.75          -1.89          37.02          65.56          -14.4         -2.495         -111.1          38.78          34.84          27.79          86.77
    0.2175              -34.75         -1.886          37.02          65.56          -14.4         -2.498         -111.1          38.78          34.87          27.81          86.75
    0.2393              -34.75         -1.882          37.01          65.56         -14.39         -2.501         -111.0          38.78          34.91          27.84          86.73
    0.2611              -34.76         -1.877           37.0          65.56         -14.39         -2.504         -111.0          38.78          34.94          27.87          86.71
    0.2828              -34.76         -1.873           37.0          65.56         -14.38         -2.508         -111.0          38.78          34.99           27.9          86.69
    0.3046              -34.76         -1.867          36.99          65.56         -14.38         -2.512         -111.0          38.78          35.03          27.93          86.67
    0.3263              -34.76         -1.862          36.98          65.56         -14.37         -2.516         -111.0          38.78          35.08          27.97          86.65
    0.3481              -34.76         -1.856          36.98          65.56         -14.37          -2.52         -110.9          38.78          35.13          28.01          86.62
    0.3698              -34.76         -1.849          36.97          65.55         -14.36         -2.525         -110.9          38.77          35.19          28.05          86.59
    0.3916              -34.76         -1.842          36.96          65.55         -14.36         -2.531         -110.9          38.77          35.25          28.09          86.56
    0.4133              -34.76         -1.833          36.95          65.55         -14.35         -2.537         -110.9          38.77          35.32          28.14          86.53
    0.4351              -34.76         -1.825          36.94          65.55         -14.34         -2.543         -110.8          38.77           35.4           28.2          86.49
